<?xml version="1.0" standalone="no"?>
<!DOCTYPE svg PUBLIC "-//W3C//DTD SVG 20010904//EN"
 "http://www.w3.org/TR/2001/REC-SVG-20010904/DTD/svg10.dtd">
<svg version="1.0" xmlns="http://www.w3.org/2000/svg"
 width="1536.000000pt" height="1536.000000pt" viewBox="0 0 1536.000000 1536.000000"
 preserveAspectRatio="xMidYMid meet">
<g transform="translate(0.000000,1536.000000) scale(0.100000,-0.100000)"
fill="#000000" stroke="none">
<path d="M970 13910 c-5 -3 -9 -2007 -9 -4453 l0 -4447 888 0 888 0 1 1768 c0
972 1 1773 1 1780 1 10 826 12 4119 12 4423 0 4176 3 4322 -48 277 -96 485
-319 571 -613 34 -116 35 -314 3 -439 -67 -262 -231 -468 -471 -589 -69 -34
-217 -80 -278 -85 -22 -2 -513 -4 -1091 -5 l-1051 -1 0 -890 0 -890 863 0 863
0 42 -82 c23 -46 98 -193 166 -328 226 -442 388 -760 548 -1075 87 -170 204
-400 260 -510 56 -110 176 -344 265 -520 90 -176 219 -430 288 -565 69 -135
151 -297 184 -361 35 -70 66 -118 76 -121 14 -3 1952 -2 1974 1 3 1 -17 47
-46 104 -59 113 -344 673 -355 697 -20 40 -36 71 -148 290 -120 233 -244 477
-548 1075 -87 171 -208 409 -270 530 -62 121 -183 360 -270 530 -87 171 -211
414 -276 542 l-118 231 87 63 c48 35 92 68 98 74 6 5 34 28 62 50 71 56 297
287 357 365 27 36 57 74 67 84 10 11 18 23 18 27 0 4 6 14 13 21 19 19 137
206 137 217 0 5 3 11 8 13 15 6 112 206 161 332 72 183 136 415 155 566 3 25
8 55 10 67 19 95 28 442 15 573 -22 231 -47 354 -123 615 -6 22 -18 51 -27 67
-5 10 -9 23 -9 30 0 15 -51 149 -87 228 -191 423 -435 738 -799 1030 -159 128
-447 284 -654 355 -81 28 -276 81 -325 88 -28 5 -50 8 -135 24 -19 3 -703 8
-1519 10 -817 2 -1486 5 -1488 7 -2 2 -4 803 -4 1780 0 1657 -1 1776 -17 1777
-51 3 -1739 4 -1749 1 -9 -3 -12 -416 -12 -1720 0 -944 0 -1745 -1 -1780 l0
-62 -1931 2 -1932 3 0 1778 0 1777 -21 1 c-87 4 -1740 3 -1746 -1z"/>
<path d="M6605 8080 c-2 -3 -3 -695 -3 -1538 l0 -1532 888 0 889 0 -2 1538 -2
1537 -883 0 c-486 0 -885 -2 -887 -5z"/>
</g>
</svg>
