<?xml version="1.0" standalone="no"?>
<!DOCTYPE svg PUBLIC "-//W3C//DTD SVG 20010904//EN"
 "http://www.w3.org/TR/2001/REC-SVG-20010904/DTD/svg10.dtd">
<svg version="1.0" xmlns="http://www.w3.org/2000/svg"
 width="16.000000pt" height="16.000000pt" viewBox="0 0 16.000000 16.000000"
 preserveAspectRatio="xMidYMid meet">
<metadata>
Created by potrace 1.11, written by Peter Selinger 2001-2013
</metadata>
<g transform="translate(0.000000,16.000000) scale(0.002286,-0.002286)"
fill="#000000" stroke="none">
<path d="M1450 6405 c-177 -30 -332 -147 -415 -312 -60 -120 -58 -99 -61 -718
-3 -562 -9 -872 -18 -970 -9 -88 -17 -152 -21 -176 -3 -13 -10 -51 -16 -84
-27 -153 -91 -305 -157 -370 -40 -40 -99 -71 -147 -78 l-30 -4 0 -193 0 -193
25 -3 c57 -8 110 -37 155 -85 63 -68 126 -208 149 -334 51 -274 57 -388 59
-1230 l2 -590 28 -80 c68 -193 207 -324 404 -381 40 -12 102 -18 201 -19 l142
-3 0 194 0 194 -42 1 c-179 2 -203 5 -245 28 -47 27 -75 61 -91 111 -7 24 -11
232 -11 640 -1 639 -6 825 -26 970 -2 14 -6 47 -9 73 -4 27 -10 67 -16 90 -5
23 -12 58 -15 77 -27 161 -116 369 -207 487 l-40 53 28 37 c52 68 76 106 110
176 33 68 90 226 99 276 6 34 12 63 26 129 10 52 13 68 25 167 3 28 7 61 10
75 8 56 16 495 17 1000 l2 535 28 41 c51 75 103 93 280 94 l77 0 0 193 0 193
-118 0 c-64 0 -147 -5 -182 -11z"/>
<path d="M5250 6224 l0 -194 23 0 c185 -2 223 -6 264 -30 24 -13 55 -41 70
-63 l28 -40 2 -551 c1 -511 9 -926 18 -986 2 -14 6 -47 10 -75 3 -27 8 -68 11
-90 10 -75 52 -260 74 -325 44 -130 116 -267 179 -339 26 -30 26 -32 0 -62
-126 -141 -230 -439 -264 -749 -3 -30 -8 -66 -10 -80 -11 -68 -16 -344 -17
-896 0 -398 -4 -618 -11 -638 -16 -47 -45 -81 -90 -107 -36 -20 -57 -24 -147
-26 -58 -1 -113 -2 -122 -3 -17 0 -18 -16 -18 -194 l0 -194 143 3 c78 1 162 8
187 14 154 43 274 129 354 253 93 146 94 156 96 906 0 350 2 664 5 697 23 353
59 528 137 676 51 98 118 153 201 167 l42 8 0 193 0 194 -25 3 c-85 12 -173
82 -220 175 -24 47 -81 199 -75 199 2 0 0 14 -5 32 -5 17 -12 50 -15 72 -3 23
-10 66 -15 96 -9 57 -20 172 -26 275 -1 33 -4 346 -4 695 -1 359 -6 659 -11
690 -43 242 -214 416 -469 477 -8 2 -79 6 -157 8 l-143 3 0 -194z"/>
<path d="M3400 5489 c-115 -9 -150 -15 -258 -45 -407 -110 -746 -411 -902
-801 -41 -102 -75 -223 -87 -308 -9 -63 -10 -348 -1 -395 31 -168 58 -256 119
-387 40 -87 125 -224 177 -283 17 -19 42 -48 56 -64 l25 -30 0 -254 c1 -141 3
-257 5 -259 2 -2 89 19 193 48 l190 51 -1 297 0 296 -31 25 c-58 48 -146 146
-191 212 -60 89 -121 228 -138 310 -3 13 -9 46 -15 73 -5 28 -9 104 -9 170 1
246 90 469 259 649 479 513 1317 367 1601 -279 53 -120 72 -217 73 -370 0
-174 -11 -242 -64 -375 -58 -144 -172 -299 -286 -388 l-30 -24 -1 -139 c-1
-95 3 -139 10 -139 6 0 34 7 61 15 28 9 61 18 75 20 14 2 74 18 134 35 100 28
114 35 148 73 143 158 253 368 307 582 31 126 33 141 36 305 6 302 -68 550
-239 800 -46 67 -213 246 -275 294 -212 163 -488 269 -736 282 -49 3 -97 6
-105 7 -8 2 -53 0 -100 -4z"/>
<path d="M4385 3024 c-44 -12 -152 -41 -240 -64 -88 -23 -225 -60 -305 -82
-80 -22 -149 -41 -155 -42 -5 -2 -23 -6 -40 -11 -16 -4 -190 -50 -385 -102
-195 -52 -438 -117 -539 -143 -101 -27 -185 -51 -188 -53 -6 -7 -4 -333 3
-351 12 -32 14 -31 294 44 300 80 344 92 364 96 10 2 33 8 50 13 17 6 285 78
596 161 311 82 574 155 585 161 41 21 46 43 47 220 0 93 -1 171 -3 173 -2 1
-40 -7 -84 -20z"/>
<path d="M4030 2414 c-25 -7 -119 -32 -210 -57 -161 -43 -214 -58 -235 -62
-129 -31 -661 -179 -665 -185 -3 -5 -5 -67 -4 -139 1 -109 4 -134 18 -150 20
-22 -6 -27 371 74 138 36 257 68 265 70 8 2 116 31 240 65 185 50 229 65 248
86 12 14 22 33 23 42 4 62 3 255 -1 261 -3 4 -25 1 -50 -5z"/>
<path d="M3630 1854 c-25 -7 -108 -30 -185 -51 l-139 -38 -1 -105 c0 -89 3
-108 18 -123 12 -12 27 -17 40 -14 12 3 32 8 44 11 68 16 217 58 238 68 38 17
52 62 51 167 -1 53 -6 95 -11 96 -6 1 -30 -3 -55 -11z"/>
<path d="M2643 954 c-77 -39 -117 -108 -111 -191 10 -127 133 -207 253 -166
148 51 175 247 47 337 -52 37 -139 46 -189 20z"/>
<path d="M3424 956 c-114 -50 -153 -200 -76 -295 57 -70 134 -93 219 -64 44
15 97 67 114 111 59 155 -106 314 -257 248z"/>
<path d="M4179 941 c-76 -47 -110 -134 -88 -216 12 -41 60 -100 98 -120 126
-64 281 31 281 173 0 151 -165 243 -291 163z"/>
</g>
</svg>
