<?xml version="1.0" standalone="no"?>
<!DOCTYPE svg PUBLIC "-//W3C//DTD SVG 20010904//EN"
 "http://www.w3.org/TR/2001/REC-SVG-20010904/DTD/svg10.dtd">
<svg version="1.0" xmlns="http://www.w3.org/2000/svg"
 width="700.000000pt" height="700.000000pt" viewBox="0 0 700.000000 700.000000"
 preserveAspectRatio="xMidYMid meet">
<metadata>
Created by potrace 1.11, written by Peter Selinger 2001-2013
</metadata>
<g transform="translate(0.000000,700.000000) scale(0.100000,-0.100000)"
fill="#000000" stroke="none">
<path d="M1380 6663 c-1 -71 -1 -6283 0 -6300 0 -10 127 -13 600 -13 l600 0 0
1200 0 1200 23 1 c12 0 340 0 729 0 481 0 726 -3 769 -11 172 -31 283 -136
332 -314 19 -69 20 -104 21 -1073 l1 -1003 600 0 600 0 -1 1163 c-1 639 -4
1172 -7 1185 -41 163 -67 226 -131 316 -112 158 -295 271 -481 300 -75 12 -72
8 -71 98 1 63 4 82 16 86 30 9 189 91 241 125 251 161 426 387 525 681 59 173
69 250 69 536 0 223 -8 401 -19 419 -2 3 -7 24 -10 45 -33 209 -151 483 -289
675 -62 86 -222 254 -307 323 -114 92 -265 179 -450 261 -68 30 -227 76 -350
101 -254 53 -273 54 -1692 55 l-1318 2 0 -58z m2495 -1097 c213 -28 367 -93
487 -205 131 -122 217 -273 245 -431 9 -52 10 -308 2 -380 -21 -171 -84 -310
-190 -421 -106 -110 -238 -171 -464 -216 -16 -4 -333 -8 -702 -10 l-673 -4 0
835 c0 547 3 835 10 838 19 6 1235 1 1285 -6z"/>
</g>
</svg>
